<svg xmlns="http://www.w3.org/2000/svg"  viewBox="0 0 256 256" width="64px" height="64px"><circle cx="211.07" cy="218.699" r="34.801" fill="#B598F9"/><path fill="#5290DB" d="M225.742,198.199h-29.344c-1.286,0-2.328,1.042-2.328,2.328v36.344c0,1.286,1.042,2.328,2.328,2.328 h29.344c1.286,0,2.328-1.042,2.328-2.328v-36.344C228.07,199.241,227.028,198.199,225.742,198.199z"/><rect width="34" height="14" x="194.07" y="211.699" fill="#3A70BF"/><circle cx="211.607" cy="59.167" r="34.801" fill="#F98FA6" transform="rotate(-13.286 211.561 59.16)"/><circle cx="211.07" cy="138.933" r="34.801" fill="#70D6F9"/><path fill="#70D6F9" d="M228.069,41.147h-31.956c-0.841,0-1.522,0.682-1.522,1.522v6.956c0,0.841,0.682,1.522,1.522,1.522 h31.956c0.841,0,1.522-0.682,1.522-1.522v-6.956C229.592,41.828,228.91,41.147,228.069,41.147z"/><path fill="#F5C84C" d="M203.069,60.147h-6.956c-0.841,0-1.522,0.682-1.522,1.522v13.956c0,0.841,0.682,1.522,1.522,1.522h6.956 c0.841,0,1.522-0.682,1.522-1.522V61.669C204.592,60.828,203.91,60.147,203.069,60.147z"/><path fill="#FC657E" d="M125.442,0c-1.878,0-3.4,1.522-3.4,3.4c0,1.878,1.522,3.4,3.4,3.4c1.878,0,3.4-1.522,3.4-3.4 C128.842,1.522,127.32,0,125.442,0z"/><path fill="#70D6F9" d="M154.442,24.397c-4.5-0.8-8-4.3-8.9-8.7c0-0.2-0.4-0.2-0.4,0c-0.9,4.4-4.4,7.9-8.9,8.7 c-0.2,0-0.2,0.3,0,0.4c4.5,0.8,8,4.3,8.9,8.7c0,0.2,0.4,0.2,0.4,0c0.9-4.4,4.4-7.9,8.9-8.7 C154.642,24.697,154.642,24.397,154.442,24.397z"/><path d="M211.607,21.866c-20.568,0-37.301,16.733-37.301,37.301s16.733,37.301,37.301,37.301s37.301-16.733,37.301-37.301 S232.175,21.866,211.607,21.866z M211.607,91.468c-17.811,0-32.301-14.49-32.301-32.301c0-17.811,14.49-32.301,32.301-32.301 s32.301,14.49,32.301,32.301C243.909,76.978,229.418,91.468,211.607,91.468z"/><path d="M211.07,101.632c-20.568,0-37.301,16.733-37.301,37.301s16.733,37.301,37.301,37.301s37.301-16.733,37.301-37.301 S231.638,101.632,211.07,101.632z M211.07,171.234c-17.811,0-32.301-14.49-32.301-32.301c0-17.811,14.49-32.301,32.301-32.301 s32.301,14.49,32.301,32.301C243.371,156.744,228.881,171.234,211.07,171.234z"/><path d="M228.069,66.146h-13.956c-1.381,0-2.5,1.119-2.5,2.5s1.119,2.5,2.5,2.5h13.956c1.381,0,2.5-1.119,2.5-2.5 S229.45,66.146,228.069,66.146z"/><path d="M228.069,57.646h-13.956c-1.381,0-2.5,1.119-2.5,2.5s1.119,2.5,2.5,2.5h13.956c1.381,0,2.5-1.119,2.5-2.5 S229.45,57.646,228.069,57.646z"/><path d="M228.069,74.646h-13.956c-1.381,0-2.5,1.119-2.5,2.5s1.119,2.5,2.5,2.5h13.956c1.381,0,2.5-1.119,2.5-2.5 S229.45,74.646,228.069,74.646z"/><path d="M231.976,137.046l-8.307-8.307c-0.976-0.977-2.56-0.977-3.535,0c-0.977,0.976-0.977,2.559,0,3.535l6.539,6.539 l-6.539,6.538c-0.977,0.977-0.977,2.56,0,3.536c0.488,0.488,1.128,0.732,1.768,0.732s1.28-0.244,1.768-0.732l8.307-8.306 c0.469-0.469,0.732-1.104,0.732-1.768S232.445,137.515,231.976,137.046z"/><path d="M195.51,138.813l6.539-6.539c0.977-0.976,0.977-2.559,0-3.535c-0.976-0.977-2.56-0.977-3.535,0l-8.307,8.307 c-0.469,0.469-0.732,1.104-0.732,1.768s0.263,1.299,0.732,1.768l8.307,8.306c0.488,0.488,1.128,0.732,1.768,0.732 s1.28-0.244,1.768-0.732c0.977-0.976,0.977-2.559,0-3.536L195.51,138.813z"/><path d="M214.729,126.344c-1.329-0.389-2.714,0.375-3.1,1.7l-5.874,20.138c-0.387,1.326,0.375,2.713,1.7,3.1 c0.234,0.068,0.47,0.101,0.701,0.101c1.083,0,2.081-0.708,2.399-1.8l5.874-20.138 C216.815,128.119,216.054,126.731,214.729,126.344z"/><path d="M211.07,181.398c-20.568,0-37.301,16.733-37.301,37.301S190.502,256,211.07,256s37.301-16.733,37.301-37.301 S231.638,181.398,211.07,181.398z M211.07,251c-17.811,0-32.301-14.49-32.301-32.301c0-17.811,14.49-32.301,32.301-32.301 s32.301,14.49,32.301,32.301C243.371,236.51,228.881,251,211.07,251z"/><path d="M227.063,209.199h-32.23c-1.381,0-2.5,1.119-2.5,2.5s1.119,2.5,2.5,2.5h32.23c1.381,0,2.5-1.119,2.5-2.5 S228.443,209.199,227.063,209.199z"/><path d="M227.063,223.199h-32.219c-1.381,0-2.5,1.119-2.5,2.5s1.119,2.5,2.5,2.5h32.219c1.381,0,2.5-1.119,2.5-2.5 S228.444,223.199,227.063,223.199z"/><path d="M228.069,38.646h-31.956c-2.218,0-4.022,1.805-4.022,4.022v6.956c0,2.218,1.805,4.022,4.022,4.022h31.956 c2.218,0,4.022-1.804,4.022-4.022v-6.956C232.091,40.451,230.287,38.646,228.069,38.646z M227.091,48.646h-30v-5h30V48.646z"/><path d="M203.069,57.646h-6.956c-2.218,0-4.022,1.805-4.022,4.022v13.956c0,2.218,1.805,4.022,4.022,4.022h6.956 c2.218,0,4.022-1.804,4.022-4.022V61.669C207.091,59.451,205.287,57.646,203.069,57.646z M202.091,74.646h-5v-12h5V74.646z"/><path d="M225.742,195.699h-29.344c-2.662,0-4.828,2.166-4.828,4.828v36.344c0,2.662,2.166,4.828,4.828,4.828h29.344 c2.662,0,4.828-2.166,4.828-4.828v-36.344C230.57,197.865,228.404,195.699,225.742,195.699z M225.57,236.699h-29v-36h29 V236.699z"/><path fill="#F9D0B4" d="M120.122,57.412c-2.433-2.552-6.39-2.787-9.164-0.61c-4.386,3.443-11.975,7.698-22.693,7.698 c-10.745,0-18.374-4.276-22.778-7.723c-2.771-2.169-6.72-1.926-9.149,0.621l-0.013,0.013c-3.413,3.579-5.316,8.334-5.316,13.279 v31.233c0,20.468,16.747,37.215,37.215,37.215h0c20.468,0,37.215-16.747,37.215-37.215V70.691 C125.438,65.746,123.534,60.99,120.122,57.412z"/><path fill="#F9D0B4" d="M127.826,73.561c-0.813,0-1.609,0.069-2.388,0.189v28.173c0,0.839-0.038,1.67-0.094,2.496 c0.81,0.13,1.635,0.217,2.482,0.217c8.581,0,15.537-6.956,15.537-15.537C143.364,80.517,136.408,73.561,127.826,73.561z"/><path fill="#F9D0B4" d="M51.008,101.923V73.75c-0.779-0.121-1.575-0.189-2.388-0.189c-8.581,0-15.538,6.957-15.538,15.538 c0,8.581,6.956,15.537,15.538,15.537c0.847,0,1.672-0.086,2.482-0.217v-0.001C51.047,103.593,51.008,102.762,51.008,101.923z"/><path fill="#5B5D60" d="M125.299,41.816c-1.246,0-2.327-0.961-2.344-2.207c-0.285-20.737-23.966-24.633-47.549-20.56 c-19.994,3.453-34.608,20.791-34.608,41.081v15.559c2.299-1.344,4.966-2.128,7.821-2.128c0.813,0,1.609,0.068,2.388,0.189 v-3.059c0-4.945,1.904-9.7,5.316-13.279l0.013-0.013c2.429-2.547,6.377-2.79,9.149-0.621C69.891,60.224,77.52,64.5,88.265,64.5 c10.719,0,18.308-4.255,22.693-7.698c2.774-2.177,6.73-1.943,9.164,0.61c3.413,3.579,5.316,8.334,5.316,13.279v3.059 c0.779-0.121,1.575-0.189,2.388-0.189c2.89,0,5.586,0.803,7.903,2.178V62.963C135.73,44.395,129.024,41.816,125.299,41.816z"/><path fill="#3A70BF" d="M162.734,178.239c-0.357-6.417-4.846-11.856-11.078-13.425l-7.91-1.991v73.56 c0,2.443-1.98,4.423-4.423,4.423h6.616c1.724,0,3.122,1.398,3.122,3.122c0,5.286-4.286,9.572-9.572,9.572h23.284 c2.344,0,4.207-1.969,4.076-4.31L162.734,178.239z"/><path fill="#3A70BF" d="M27.386,243.928c0-1.724,1.398-3.122,3.122-3.122h6.616c-2.443,0-4.423-1.98-4.423-4.423v-73.56 l-7.91,1.991c-6.233,1.569-10.721,7.008-11.078,13.425L9.598,249.19c-0.13,2.34,1.732,4.31,4.076,4.31h23.284 C31.672,253.5,27.386,249.214,27.386,243.928z"/><path fill="#F9D0B4" d="M105.368,140.972v-6.057c-5.14,2.69-10.97,4.223-17.145,4.223h0c-6.174,0-12.005-1.533-17.145-4.223 v6.057c0,2.541-0.754,4.963-2.088,7.012l11.015,9.614h16.436l11.015-9.614C106.122,145.935,105.368,143.513,105.368,140.972z"/><path fill="#EDF4FC" d="M139.323,157.598H37.124c-2.443,0-4.423,1.98-4.423,4.423v74.363c0,2.443,1.98,4.423,4.423,4.423 h102.198c2.443,0,4.423-1.98,4.423-4.423v-74.363C143.746,159.578,141.765,157.598,139.323,157.598z"/><path fill="#C7D7E5" d="M145.939,240.807H30.508c-1.724,0-3.122,1.398-3.122,3.122c0,5.286,4.286,9.572,9.572,9.572h102.53 c5.286,0,9.572-4.286,9.572-9.572C149.06,242.204,147.663,240.807,145.939,240.807z"/><path fill="#5290DB" d="M68.99,147.984c-1.236,1.899-2.971,3.477-5.082,4.519c-0.004,0.002-0.025,0.012-0.05,0.024 c-0.006,0.003-0.004,0.002-0.012,0.006c0,0,0.001,0,0.001-0.001c-0.008,0.004-0.015,0.007-0.022,0.011 c-0.02,0.01-0.044,0.021-0.073,0.035c-0.006,0.003-0.01,0.005-0.011,0.005c-0.559,0.271-2.775,1.346-10.334,5.014h26.599 L68.99,147.984z M63.908,152.503c-0.004,0.002-0.007,0.003-0.011,0.005C63.902,152.506,63.906,152.504,63.908,152.503 L63.908,152.503z"/><path fill="#5290DB" d="M112.705,152.583c0.008,0.004-0.006-0.003-0.055-0.027c-0.007-0.003-0.014-0.007-0.02-0.009 c0.003,0.001,0.005,0.003,0.008,0.004c-0.013-0.006-0.03-0.014-0.047-0.023c-0.02-0.01-0.036-0.017-0.043-0.021 c0.001,0.001,0.002,0.001,0.003,0.002c-0.002-0.001-0.004-0.002-0.006-0.003c-0.002-0.001-0.004-0.002-0.005-0.003 c-2.112-1.041-3.846-2.62-5.082-4.519l-11.015,9.614h26.599C115.476,153.928,113.262,152.853,112.705,152.583z"/><path fill="#F9D0B4" d="M30.508,240.807h6.171v-0.045c-2.23-0.226-3.977-2.088-3.977-4.378V224.5H11.03l-1.432,24.69 c-0.13,2.34,1.732,4.31,4.076,4.31h23.004v-0.014c-5.156-0.149-9.292-4.366-9.292-9.558 C27.386,242.204,28.784,240.807,30.508,240.807z"/><path fill="#F9D0B4" d="M165.417,224.5h-21.671v11.883c0,2.29-1.747,4.152-3.977,4.378v0.045h6.171 c1.724,0,3.122,1.398,3.122,3.122c0,5.192-4.136,9.408-9.292,9.558v0.014h23.004c2.344,0,4.207-1.969,4.076-4.31L165.417,224.5z"/><path fill="#F5C84C" d="M173.252,111.563c-3.157-0.561-5.613-3.017-6.245-6.104c0-0.14-0.281-0.14-0.281,0 c-0.632,3.087-3.087,5.543-6.245,6.104c-0.14,0-0.14,0.211,0,0.281c3.157,0.561,5.613,3.017,6.245,6.104 c0,0.14,0.281,0.14,0.281,0c0.632-3.087,3.087-5.543,6.245-6.104C173.393,111.774,173.393,111.563,173.252,111.563z"/><path fill="#F5C84C" d="M36.2,126.453h-2.3v-2.3c0-1.7-1.4-3.2-3.2-3.2s-3.2,1.4-3.2,3.2v2.3h-2.3c-1.7,0-3.2,1.4-3.2,3.2 s1.4,3.2,3.2,3.2h2.3v2.3c0,1.7,1.4,3.2,3.2,3.2s3.2-1.4,3.2-3.2v-2.3h2.3c1.7,0,3.2-1.4,3.2-3.2S38,126.453,36.2,126.453z"/><path fill="#87D147" d="M13.442,149.353c-1.878,0-3.4,1.522-3.4,3.4c0,1.878,1.522,3.4,3.4,3.4s3.4-1.522,3.4-3.4 C16.842,150.876,15.32,149.353,13.442,149.353z"/><path d="M95.069,200H81.114c-1.381,0-2.5,1.119-2.5,2.5s1.119,2.5,2.5,2.5h13.956c1.381,0,2.5-1.119,2.5-2.5 S96.45,200,95.069,200z"/><path d="M121.932,55.687c-3.319-3.481-8.701-3.848-12.517-0.851C105.25,58.104,98.201,62,88.265,62 c-9.958,0-17.046-3.911-21.238-7.192c-3.812-2.983-9.186-2.611-12.511,0.878c-3.874,4.062-6.007,9.391-6.007,15.004v31.233 c0,21.899,17.816,39.715,39.715,39.715s39.715-17.816,39.715-39.715V70.69C127.938,65.077,125.805,59.749,121.932,55.687z M122.938,101.923c0,19.142-15.573,34.715-34.715,34.715c-19.142,0-34.715-15.573-34.715-34.715V70.69 c0-4.322,1.643-8.425,4.639-11.567c0.834-0.875,1.954-1.321,3.088-1.321c0.946,0,1.903,0.311,2.71,0.943 C68.756,62.511,76.881,67,88.265,67c11.365,0,19.453-4.476,24.237-8.231c1.781-1.398,4.279-1.239,5.812,0.368 c2.983,3.128,4.625,7.231,4.625,11.554V101.923z"/><path d="M127.827,71.061c-0.58,0-1.175,0.03-1.77,0.09c-1.374,0.138-2.375,1.364-2.237,2.738 c0.138,1.374,1.361,2.377,2.738,2.237c0.429-0.043,0.855-0.065,1.269-0.065c7.188,0,13.037,5.849,13.037,13.038 s-5.849,13.038-13.037,13.038c-0.42,0-0.854-0.026-1.325-0.08c-1.375-0.159-2.611,0.83-2.767,2.201 c-0.156,1.372,0.83,2.61,2.201,2.767c0.661,0.075,1.279,0.112,1.89,0.112c9.946,0,18.037-8.092,18.037-18.038 S137.772,71.061,127.827,71.061z"/><path d="M48.62,76.061c0.434,0,0.882,0.024,1.333,0.072c1.372,0.15,2.604-0.848,2.75-2.222c0.146-1.373-0.849-2.604-2.222-2.75 c-0.625-0.066-1.25-0.1-1.86-0.1c-9.946,0-18.038,8.092-18.038,18.038s8.092,18.038,18.038,18.038 c0.482,0,0.965-0.023,1.477-0.069c1.375-0.125,2.388-1.342,2.262-2.717c-0.125-1.375-1.337-2.386-2.717-2.262 c-0.336,0.031-0.677,0.049-1.022,0.049c-7.189,0-13.038-5.849-13.038-13.038S41.431,76.061,48.62,76.061z"/><path d="M100.453,109.836c-1.059-0.888-2.635-0.748-3.522,0.31c-1.798,2.146-4.852,3.426-8.167,3.426 c-3.315,0-6.369-1.281-8.167-3.427c-0.886-1.057-2.462-1.198-3.522-0.31c-1.058,0.887-1.197,2.464-0.31,3.522 c2.737,3.265,7.223,5.215,11.999,5.215c4.776,0,9.261-1.949,11.999-5.214C101.65,112.3,101.511,110.724,100.453,109.836z"/><circle cx="105.554" cy="90.816" r="5"/><circle cx="71.975" cy="90.816" r="5"/><path d="M125.451,39.317c-0.157-7.001-2.755-12.644-7.728-16.772c-8.452-7.019-24.03-9.192-42.742-5.96 c-21.255,3.67-36.683,21.983-36.683,43.545v15.09c0,1.381,1.119,2.5,2.5,2.5s2.5-1.119,2.5-2.5v-15.09 c0-19.122,13.682-35.363,32.533-38.618c17.27-2.981,31.372-1.203,38.697,4.88c3.856,3.202,5.85,7.661,5.927,13.251 c0.036,2.577,2.208,4.673,4.844,4.673c5.04,0,7.931,6.797,7.931,18.647v12.506c0,1.381,1.119,2.5,2.5,2.5s2.5-1.119,2.5-2.5 V62.963C138.23,42.602,130.296,39.381,125.451,39.317z"/><path d="M169.344,249.046L165.23,178.1c-0.42-7.55-5.63-13.864-12.964-15.71l-7.545-1.899c-1.338-0.337-2.698,0.476-3.035,1.814 c-0.337,1.339,0.475,2.698,1.814,3.035l7.545,1.899c5.2,1.309,8.895,5.786,9.193,11.145l4.114,70.946 c0.024,0.438-0.128,0.856-0.43,1.175c-0.302,0.319-0.71,0.495-1.15,0.495h-23.284c-1.381,0-2.5,1.119-2.5,2.5s1.119,2.5,2.5,2.5 h23.284c1.801,0,3.544-0.75,4.782-2.059C168.792,252.632,169.445,250.85,169.344,249.046z"/><path d="M36.958,251H13.674c-0.439,0-0.848-0.176-1.15-0.495c-0.302-0.319-0.455-0.737-0.431-1.17l4.115-70.957 c0.298-5.354,3.993-9.831,9.193-11.14l7.454-1.876c1.339-0.337,2.151-1.695,1.814-3.035c-0.337-1.338-1.696-2.151-3.035-1.814 l-7.454,1.876c-7.334,1.846-12.544,8.16-12.964,15.705l-4.115,70.957c-0.1,1.799,0.552,3.581,1.79,4.89 C10.13,255.25,11.873,256,13.674,256h23.284c1.381,0,2.5-1.119,2.5-2.5S38.339,251,36.958,251z"/><path d="M109.552,146.62c-1.102-1.691-1.684-3.644-1.684-5.647v-5.284c0-1.381-1.119-2.5-2.5-2.5s-2.5,1.119-2.5,2.5v5.284 c0,2.974,0.862,5.871,2.493,8.376c0.479,0.736,1.28,1.136,2.098,1.136c0.467,0,0.94-0.131,1.362-0.405 C109.978,149.326,110.305,147.777,109.552,146.62z"/><path d="M71.079,133.167c-1.381,0-2.5,1.119-2.5,2.5v5.305c0,2.003-0.582,3.956-1.684,5.647 c-0.753,1.157-0.426,2.706,0.731,3.459c0.421,0.274,0.894,0.405,1.362,0.405c0.817,0,1.618-0.4,2.098-1.136 c1.631-2.505,2.493-5.402,2.493-8.376v-5.305C73.579,134.286,72.459,133.167,71.079,133.167z"/><path d="M139.323,155.098H37.124c-3.817,0-6.923,3.106-6.923,6.923v74.362c0,3.817,3.105,6.923,6.923,6.923h102.199 c3.817,0,6.923-3.106,6.923-6.923v-74.362C146.246,158.204,143.14,155.098,139.323,155.098z M141.246,236.383 c0,1.061-0.863,1.923-1.923,1.923H37.124c-1.06,0-1.923-0.863-1.923-1.923v-74.362c0-1.061,0.863-1.923,1.923-1.923h102.199 c1.06,0,1.923,0.863,1.923,1.923V236.383z"/><path d="M145.939,238.307H30.508c-3.1,0-5.622,2.522-5.622,5.622c0,6.656,5.416,12.072,12.072,12.072h102.53 c6.657,0,12.072-5.416,12.072-12.072C151.561,240.829,149.039,238.307,145.939,238.307z M139.488,251H36.958 c-3.899,0-7.072-3.172-7.072-7.072c0-0.343,0.279-0.622,0.622-0.622h115.431c0.343,0,0.622,0.279,0.622,0.622 C146.561,247.828,143.388,251,139.488,251z"/><path d="M81.554,155.631l-10.92-9.531c-0.546-0.477-1.271-0.693-1.988-0.593c-0.717,0.1-1.356,0.505-1.751,1.112 c-1.018,1.563-2.433,2.822-4.079,3.634l-0.101,0.048l-0.012,0.006l-0.054,0.026l0,0.001c-0.087,0.045-0.171,0.096-0.251,0.15 c-0.433,0.181-0.878,0.397-1.33,0.616l-8.548,4.147c-1.242,0.603-1.761,2.098-1.158,3.34c0.604,1.242,2.099,1.762,3.34,1.158 c7.74-3.755,9.768-4.739,10.195-4.946c0.007-0.003,0.013-0.006,0.02-0.009c0.046-0.022,0.069-0.034,0.077-0.038 c0.006-0.002,0.012-0.005,0.018-0.008c1.61-0.794,3.065-1.867,4.3-3.16l8.952,7.813c0.474,0.414,1.06,0.617,1.643,0.617 c0.697,0,1.39-0.29,1.884-0.856C82.702,158.118,82.594,156.539,81.554,155.631z"/><path d="M124.005,155.288l-8.615-4.18c-0.463-0.225-0.913-0.443-1.345-0.625c-0.079-0.053-0.161-0.102-0.247-0.146l0-0.001 l-0.052-0.025c-0.003-0.001-0.007-0.003-0.01-0.005l-0.1-0.049c-1.656-0.819-3.068-2.076-4.084-3.637 c-0.395-0.606-1.034-1.012-1.751-1.112c-0.719-0.1-1.443,0.116-1.988,0.593l-10.742,9.375c-1.04,0.908-1.147,2.487-0.239,3.527 c0.908,1.041,2.487,1.147,3.527,0.239l8.774-7.657c1.236,1.294,2.695,2.368,4.315,3.167c0.004,0.002,0.008,0.004,0.012,0.006 l0.147,0.071c0.003,0.002,0.006,0.003,0.009,0.005l10.207,4.952c0.352,0.171,0.723,0.251,1.089,0.251 c0.928,0,1.819-0.519,2.251-1.409C125.766,157.386,125.248,155.89,124.005,155.288z"/><path d="M31.875,222H11.656c-1.381,0-2.5,1.119-2.5,2.5s1.119,2.5,2.5,2.5h20.218c1.381,0,2.5-1.119,2.5-2.5 S33.255,222,31.875,222z"/><path d="M164.625,222h-19.958c-1.381,0-2.5,1.119-2.5,2.5s1.119,2.5,2.5,2.5h19.958c1.381,0,2.5-1.119,2.5-2.5 S166.005,222,164.625,222z"/></svg>