<svg xmlns="http://www.w3.org/2000/svg" version="1.1" viewBox="0 0 3000 3000" width="3000" height="3000">
<defs/><!--ITEM: Illustration component 1--><g transform="translate(951.0 560.0) rotate(0.0 777.0 569.0)  scale(1.6096104307727683 1.6082418863631545)"><svg width="965.451" height="707.605" viewBox="0.0 0.0 965.451 707.605"><path d="m10 10h945.451v687.605h-945.451z" fill="#343947"/><path d="m965.451 707.605h-965.451v-707.605h965.451zm-945.451-20h925.451v-667.605h-925.451z" fill="#d4d6d6"/><g fill="#42d475"><path d="m99.389 369.267h661.942v13.304h-661.942z"/><path d="m99.389 413.829h767.47v13.304h-767.47z"/><path d="m99.389 459.196h462.937v13.304h-462.937z"/><path d="m99.389 504.31h177.561v13.304h-177.561z"/><path d="m99.389 549.748h288.443v13.304h-288.443z"/><path d="m99.389 595.105h438.426v13.304h-438.426z"/></g><path d="m99.389 97.911h294.576v13.304h-294.576z" fill="#6fbfca"/><path d="m99.389 143.268h305.036v13.304h-305.036z" fill="#6fbfca"/><path d="m98.592 188.928h226.648v13.304h-226.648z" fill="#6fbdc9"/><path d="m99.389 233.499h338.69v13.304h-338.69z" fill="#4e749b"/><path d="m98.592 279.098h349.048v13.304h-349.048z" fill="#4e749b"/><path d="m99.389 324.051h427.871v13.304h-427.871z" fill="#4d739a"/><path d="m402.274 97.911h156.796v13.304h-156.796z" fill="#71c1cd"/><path d="m412.476 143.268h323.197v13.304h-323.197z" fill="#4e749b"/><path d="m334.078 202.232v-13.304h156.796v13.304" fill="#6fbdc9"/><path d="m456.075 279.098h321.492v13.304h-321.492z" fill="#4e749b"/><path d="m535.357 324.051h156.796v13.304h-156.796z" fill="#4d739a"/></svg></g><!--ITEM: Illustration component 2--><g transform="translate(213.0 1123.0) rotate(0.0 715.5 666.0)  scale(0.999680046498046 0.999729052411471)"><svg width="1431.458" height="1332.361" viewBox="0.0 0.0 1431.458 1332.361"><linearGradient id="a-i2" gradientUnits="userSpaceOnUse" x1="710.597" x2="810.373" y1="378.834" y2="378.834"><stop offset=".382" stop-color="#e09379" fill="#000000"/><stop offset=".994" stop-color="#eab698" fill="#000000"/></linearGradient><linearGradient id="b-i2" gradientTransform="matrix(-.91132513 .11852221 -.13318113 -.97093239 -6579.276 8464.295)" gradientUnits="userSpaceOnUse" x1="-9346.158" x2="-9280.708" y1="7199.545" y2="7199.545"><stop offset=".197" stop-color="#eab698" fill="#000000"/><stop offset=".724" stop-color="#e09379" fill="#000000"/></linearGradient><path d="m1286.353 1224.09c-13.918 0-27.259 1.102-39.611 3.122-1.166-7.693-1.934-12.754-1.934-12.754s-63.853-435.579-149.831-494.341c-45.721-31.248-173.111-54.83-325.403-64.824-141.114-9.261-278.089-7.524-300.565 1.158-79.791 9.26-443.602 344.746-468.633 551.005-6.743 55.564 77.543 78.715 223.64 79.873 705.104 21.742 901.811 31.636 942.531 33.722 9.633 1.166 109.356 5.532 119.805 6.001 69.251 3.107 115.247-23.049 115.247-51.481s-51.598-51.481-115.247-51.481z" fill="#e2e0d6"/><g fill="#f3f2ea"><path d="m44.59 1124.402c-14.734 0-17.5-1.272-19.117-2.015l5.008-10.905c2.826 1.101 22.625 3.717 157.001-9.659 74.912-7.457 145.776-15.923 149.349-16.561-2.515.449-5.043 3.021-4.744 6.393l5.926-.524v-6.01l5.622 3.779-1.438 6.577q-1.566 1.49-16.118 3.252c-8.904 1.079-20.737 2.462-33.318 3.896-19.745 2.25-59.265 6.664-102.097 10.942-86.223 8.611-126.599 10.836-146.072 10.836z"/><path d="m68.358 1271.884-11.523-3.349c2.164-7.445 12.734-20.205 74.736-58.403 39.493-24.331 89.312-52.446 129.341-75.036 37.493-21.16 76.264-43.04 80.318-47.384-.015.015-.352.38-.646 1.079l11.061 4.655c-2.026 4.814-13.126 11.631-84.836 52.1-39.94 22.54-89.646 50.591-128.944 74.802-59.95 36.934-68.579 48.344-69.507 51.535z"/><path d="m204.949 1287.057-11.996-.322c.24-8.922 6.572-25.052 53.799-70.967 29.149-28.34 64.72-59.091 90.693-81.544 16.85-14.566 32.765-28.325 34.777-31.12-.103.144-.168.276-.22.381l10.732 5.366c-1.663 3.328-8.58 9.499-37.442 34.451-25.861 22.356-61.278 52.975-90.177 81.07-43.315 42.113-50.023 57.351-50.167 62.685z"/><path d="m299.273 1289.741-11.996-.31c.585-22.625 41.563-72.35 59.155-92.679 28.274-32.675 64.605-68.645 82.031-75.347l4.309 11.2c-12.994 4.998-45.489 35.278-77.266 72-33.313 38.498-55.912 72.711-56.233 85.136z"/><path d="m388.415 1292.689-11.992-.457c.862-22.624 17.75-59.772 33.267-86.995 7.688-13.487 34.51-58.255 56.905-68.098l4.828 10.985c-12.455 5.475-32.596 30.225-51.309 63.055-18.614 32.657-31.058 64.651-31.699 81.509z"/><path d="m437.873 1294.105-11.992-.408c.972-28.516 26.371-72.179 34.133-84.882 8.611-14.093 17.772-27.102 25.796-36.629 12.714-15.097 18.721-17.033 22.533-17.033v12c.224 0 .349-.031.351-.031-3.918.982-19.562 16.626-39.623 49.898-18.961 31.449-30.624 60.266-31.197 77.084z"/><path d="m489.494 1295.822-11.99-.47c1.069-27.293 42.712-102.73 69.36-118.524l6.119 10.323c-23.182 13.739-62.557 84.892-63.489 108.671z"/><path d="m562.554 1298.225-11.992-.42c.729-20.829 12.201-44.264 18.975-56.379 10.113-18.087 22.025-33.184 30.349-38.459l6.424 10.136c-13.026 8.257-42.694 54.809-43.755 85.123z"/><path d="m626.479 1300.398-11.992-.432c.507-14.091 12.116-57.443 35.257-71.584l6.258 10.239c-18.315 11.193-29.108 50.284-29.522 61.777z"/><path d="m1073.839 748.661c-.762 0-1.521-.121-2.284-.369-273.775-30.376-459.359-37.684-583.918-22.989-2.698.47-6.79.605-31.493-21.585-3.96-3.557-23.948-21.706-28.589-29.712l10.381-6.019c4.957 8.55 41.444 41.283 49.243 45.287 125.526-14.661 311.802-7.309 585.982 23.123 3.713-2.986 12.412-16.072 15.391-20.553l9.994 6.644c-10.742 16.159-17.788 26.173-24.707 26.173z"/><path d="m1097.511 797.18-3.954-.639c-223.113-36.056-411.364-42.079-610.386-19.529l-1.864.211-1.652-.888c-12.087-6.497-27.485-13.898-42.376-21.056-38.675-18.59-62.649-30.539-69.461-39.694l9.627-7.163c5.539 7.444 38.526 23.301 65.033 36.042 14.345 6.896 29.156 14.015 41.199 20.415 198.271-22.294 385.996-16.38 607.781 19.17 2.243-3.837 4.636-8.202 6.968-12.456 8.245-15.04 13.556-24.43 18.63-27.833l6.685 9.966c-2.901 1.945-10.345 15.523-14.792 23.636-3.133 5.715-6.372 11.625-9.331 16.411l-2.106 3.407z"/><path d="m1124.627 871.85-5.095-1.177c-197.134-43.46-404.68-43.628-653.161-.526l-4.694.814-1.856-4.388c-10.252-24.225-46.938-43.363-82.415-61.871-26.654-13.905-51.83-27.039-65.317-42.218l8.971-7.971c12.022 13.531 36.248 26.169 61.896 39.55 35.409 18.472 71.961 37.54 85.836 63.488 122.688-21.067 235.548-31.608 342.137-31.608 107.25 0 208.147 10.657 306.515 31.989 5.631-11.647 20.762-40.776 33.126-45.905l4.598 11.084c-8.297 3.442-25.69 36.178-28.729 43.824l-1.81 4.915z"/><path d="m1133.031 934.741-3.744-.596c-233.021-37.067-452.907-37.552-672.229-1.48l-3.526.58-2.189-2.825c-17.869-23.056-59.944-40.854-100.634-58.067-37.851-16.011-76.989-32.567-97.926-54.071l8.598-8.371c19.246 19.768 57.25 35.844 94.003 51.391 40.553 17.154 82.435 34.871 103.151 58.963 109.027-17.735 220.834-26.521 332.344-26.132 109.575.388 222.774 9.662 336.509 27.564 2.798-4.234 5.827-9.079 8.997-14.148 14.665-23.453 24.215-37.907 33.151-40.864l3.77 11.393c-5.472 1.81-18.789 23.108-26.746 35.833-4.052 6.48-7.879 12.601-11.383 17.706l-2.146 3.125z"/><path d="m447.518 1016.469-2.073-2.85c-19.032-26.169-73.711-48.886-126.59-70.855-46.787-19.438-95.167-39.538-123.855-63.547l7.701-9.203c27.284 22.833 74.804 42.576 120.758 61.668 55.039 22.867 107.128 44.508 129.509 72.043 251.54-30.144 473.75-32.593 679.078-7.484 16.644-17.418 44.884-45.039 59.997-48.877l2.953 11.631c-8.889 2.257-30.87 20.843-56.001 47.351l-2.425 2.544-2.995-.371c-206.106-25.495-429.374-23.033-682.559 7.526l-3.498.422z"/><path d="m442.4 1110.713-2.012-1.718c-9.595-8.194-97.072-57.071-167.362-96.345-64.397-35.981-120.013-67.056-129.141-73.858l7.17-9.622c8.498 6.333 66.459 38.718 127.824 73.005 87.712 49.008 151.923 85.083 167.102 96.001 105.767-13.077 212.74-21.785 317.989-25.884 114.079-4.441 238.049-2.316 368.46 6.32l4.518.298c8.377.549 42.339-10.008 60.578-15.679 10.581-3.29 16.698-5.176 19.368-5.701l2.313 11.775c-2.166.425-9.915 2.834-18.118 5.385-29.714 9.238-55.081 16.834-64.922 16.194l-4.529-.298c-161.915-10.723-289.057-9.347-367.2-6.303-105.721 4.117-213.187 12.899-319.412 26.103l-2.625.327z"/><path d="m1143.042 1179.125c-.063 0-.122 0-.177-.002l-.514-.036c-1.264-.143-127.396-14.351-210.24-18.632-83.979-4.341-239.303-4.864-423.393 6.687l-.752-11.977c184.597-11.583 340.454-11.052 424.764-6.695 81.074 4.191 203.229 17.824 210.627 18.654 6.674-.193 71.858-10.414 91.441-13.911l2.109 11.813c-14.777 2.639-85.986 14.098-93.866 14.098z"/><path d="m1112.777 1260.243c-23.022 0-50.452-1.141-78.791-2.32-40.464-1.683-82.305-3.423-116.979-2.218l-.416-11.993c35.128-1.22 77.204.529 117.894 2.222 48.663 2.024 94.628 3.936 118.817.141l1.859 11.854c-10.775 1.691-25.379 2.314-42.385 2.314z"/></g><path d="m1131.716 905.624c.368-9.8 10.668 167.186 15.5 244.762l11.126 127.376c10.938-22.29 32.268-30.855 32.268-30.855-16.927 9.082-30.016 35.191-28.47 52.422s2.958 15.027 4.407 21.722l-20.757-.757c-17.09-55.746-15.315-381.668-14.075-414.67z" fill="#aeaa98"/><path d="m462.527 860.762c5.207-2.599-23.306 254.559-13.127 265.085 12.553 12.98 137.433 64.602 223.151 114.6l-12.117 18.521c-105.837-65.482-230.082-129.763-359.465-188.685 44.933 10.997 138.53 58.304 140.353 53.248 5.122-14.206 2.382-175.619 21.204-262.77z" fill="#aeaa98"/><path d="m1395.554 1269.97c0 20.831-47.508 36.898-106.061 35.185-79.679-2.332-106.061-16.887-106.061-37.718s47.485-37.718 106.061-37.718 106.061 19.42 106.061 40.25z" fill="#aeaa98"/><path d="m914.485 679.023c-.489-20.523-55.564-12.733-62.509-38.2-8.346-30.604.579-89.712.579-89.712l-149.327-31.255c5.444 10.736 6.367 75.821 4.052 111.706s-49.776 21.994-56.721 39.358c-19.729 49.323 265.086 56.721 263.927 8.103z" fill="#ebb292"/><path d="m851.397 639.087s-78.521-8.336-142.961-54.985c-.509-31.73-.665-52.567-5.209-64.245l151.064 30.676c-10.429 37.192-2.894 88.555-2.894 88.555z" fill="#de8f74"/><path d="m549.848 360.69c-9.438 25.618 16.77 70.4 45.145 79.873 20.149 6.726 39.596-2.809 38.2-4.63 9.847 20.061 27.697 60.733 73.684 91.668 20.494 13.786 66.756 44.087 130.339 36.854 12.144-1.381 80.48-19.148 120.098-75.274 55.564-78.715 11.231-162.866 12.733-170.164 8.103-39.358 15.048-69.455-11.576-116.915-64.824-129.648-172.65-108.354-180.133-108.215-13.162.245-136.912 4.511-177.98 101.574-30.014 70.937 24.587 157.343 15.47 149.023-23.437-21.387-54.746-11.21-65.982 16.206z" fill="#ebb292"/><path d="m849.924 388.926c-5.21-9.138 22.876-41.832 38.652-36.854 4.93 1.555 9.35 7.008 9.888 12.584.732 7.588-5.911 13.46-8.989 16.18-13.106 11.584-35.782 14.7-39.551 8.09z" fill="#e09379"/><path d="m622.519 357.969c49.439-80.001 140.502-142.592 322.976-179.446-3.633.734-47.258-113.344-200.442-86.018-93.123 19.235-153.791 74.911-153.791 151.321 0 60.225 31.257 114.143 31.257 114.143z" fill="#de8f74"/><circle cx="760.485" cy="378.834" fill="url(#a-i2)" r="49.888"/><path d="m923.196 377.477c-4.084-21.507 7.634-41.796 26.172-45.317 19.426-2.293 26.22 7.155 26.22 7.155 5.564 17.921 8.546 35.741 9.808 53.496 0 0-5.687 16.915-21.238 17.234-17.514 3.262-37.246-12.997-40.962-32.568z" fill="url(#b-i2)"/><path d="m952.845 300.778c0 10.177-8.25 18.427-18.427 18.427s-18.427-8.25-18.427-18.427 8.25-18.427 18.427-18.427 18.427 8.25 18.427 18.427z" fill="#090909"/><path d="m806.655 300.889c0 10.177-8.25 18.427-18.427 18.427s-18.427-8.25-18.427-18.427 8.25-18.427 18.427-18.427 18.427 8.25 18.427 18.427z" fill="#090909"/><path d="m804.515 409.308c-2.284.381 36.144 42.924 64.839 43.194 29.738.28 62.619-41.505 67.628-48.108.266-.35.012-.851-.427-.835-12.155.442-125.094 4.591-132.039 5.749z" fill="#fff"/><path d="m804.466 409.224c3.124-11.834 128.699-11.217 132.849-5.22" fill="#e08c79"/><path d="m957.268 242.531c4.653 2.728 7.504 8.205-1.723 7.484-23.455-1.832-51.865-3.087-54.863-5.072-5.28-3.497.964-11.222 6.443-12.983 13.312-4.279 40.276 4.787 50.142 10.571z" fill="#ab7e64"/><path d="m1014.433 135.045c16.845-31.244 1.256-52.755-43.147-65.619-13.642-28.425-43.523-33.974-83.597-25.169-24.269-33.364-64.742-41.453-123.148-21.573-45.843-44.045-110.275-21.066-137.53 44.045-44.404 14.841-60.179 37.662-57.529 65.619-42.971-.887-60.339 27.027-53.034 82.698-39.551 7.191-31.461 54.832-21.573 58.428-2.943 17.639 2.874 29.525 22.472 32.36-18.354 34.46-8.04 57.154 30.562 62.023 1.798-17.079 23.648-44.756 55.624-29.447 8.067 3.862 14.48 10.507 18.156 18.66 13.77 30.54 17.907 46.742 17.907 46.742s29.589-77.104.899-102.473c23.02-13.19 32.622-43.327 35.057-84.495 35.632 10.041 63.293 2.895 80.001-27.866 25.783 13.386 54.414 6.548 86.293-23.371 20.824 53.77 51.439 75.046 96.181 49.439 47.014 43.544 124.945-3.596 76.405-80.001zm-508.77 134.833s-11.527-17.448-4.494-31.461c3.947-7.865 16.18-13.483 16.18-13.483-12.365 12.716-15.077 28.014-11.686 44.944zm15.281 65.619c-3.497-10.43.026-22.292 8.989-29.663-1.852 20.658 1.872 38.839 9.888 46.742 0 0-15.167-6.014-18.877-17.079zm146.519-302.925c9.059-15.972 25.85-25.395 43.147-24.27 16.51 1.074 32.36 17.978 32.36 17.978-12.367-9.405-52.256-16.661-75.507 6.292zm284.947 51.237c.092-15.682-16.276-24.716-49.439-26.967 0 0 51.901-2.446 55.731 13.483 1.199 4.987-6.292 13.483-6.292 13.483zm41.349 131.238c20.816-13.227 27.008-33.798 12.584-64.72 0 0 17.374 18.527 13.483 36.854-3.734 17.586-26.068 27.866-26.068 27.866z" fill="#ab7e64"/><path d="m607.237 442.464c7.382 20.162 22.402 32.3 44.944 26.967-6.88-11.59-14.46-24.235-18.877-34.158-7.246 6.274-16.317 7.645-26.068 7.191z" fill="#ab7e64"/><path d="m730.414 253.906c-3.895 3.731-5.401 9.719 3.408 6.882 22.394-7.211 49.742-15.008 52.199-17.633 4.327-4.625-3.535-10.694-9.274-11.139-13.941-1.082-38.074 13.979-46.334 21.89z" fill="#ab7e64"/><path d="m667.342 1242.184c-5.788 3.473-34.683 57.445 1.28 62.132 100.587 13.11 347.15 40.892 394.611 21.213 24.808-10.286-136.251-77.956-191.057-101.857-12.283-5.357-26.058-6.384-38.95-2.728-78.107 22.148-146.331 9.508-165.883 21.24z" fill="#ebb292"/><path d="m1059.76 1326.687s-161.064-77.372-177.109-84.503c-20.836-9.261 155.372 88.499 155.372 88.499 6.985-.678 13.829-1.52 21.737-3.996z" fill="#de8f74"/><path d="m979.316 1332.174s-116.343-61.051-104.768-56.421c10.013 4.005 133.194 56.517 133.194 56.517z" fill="#de8f74"/><path d="m929.588 1330.159s-46.937-34.727-67.773-30.097c-26.453 5.878-96.079 15.833-96.079 15.833 57.018 6.429 112.209 11.023 163.852 14.264z" fill="#de8f74"/><path d="m734.482 1235.238c-17.637 4.815-51.608 70.337-62.509 69.455-5.407-.438-11.77-1.232-17.364-6.945-11.576-17.364 6.98-52.043 13.891-56.721 6.243-3.517 27.834-5.487 65.982-5.788z" fill="#de8f74"/><path d="m1188.008 1280.933c-9.197-10.9-6.747-35.349 19.812-45.917 32.863-13.077 59.541-83.403 99.572-58.977 3.041 1.855 25.646-20.341 40.595-3.064 2.795 3.231 21.428-13.284 32.169 1.532 2.585 3.566 20.594-14.393 29.106 9.191 12.179 33.748 27.019 90.2 20.68 98.055-9.911 12.283-28.265 0-28.265 0-7.062 14.622-19.378 10.87-33.579.53-7.679 17.13-30.075 10.203-36.963-.53-3.983 11.147-25.438 17.66-36.304 2.19 0 0-36.894 4.391-65.176-.888-14.461-2.699-36.443 4.049-41.649-2.121z" fill="#ebb292"/><path d="m1216.899 1238.624c8.043 1.034 100.948 30.361 64.787 46.429l13.146-1.11c-.129-3.413-19.559-75.699-25.751-75.104-4.785.459 1.377 36.781-7.222 34.374-27.281-7.639-44.96-4.588-44.96-4.588z" fill="#de8f74"/><path d="m1307.392 1176.039c-3.8.676 20.735 105.533 23.744 105.714 1.321.08-10.461-72.133-17.684-92.197-4.241-11.78-5.581-13.602-6.06-13.517z" fill="#de8f74"/><path d="m1348.921 1173.395c-4.399-.005 12.188 105.957 19.449 109.327 3.554 1.649-13.111-92.497-16.739-104.516-1.318-4.367-1.874-4.81-2.709-4.811z" fill="#de8f74"/><path d="m1381.439 1175.684c-5.389-.016 16.928 106.779 20.239 106.07 4.972-1.065-9.227-76.189-16.685-99.879-1.949-6.191-2.929-6.189-3.554-6.191z" fill="#de8f74"/></svg></g><!--ITEM: Illustration component 3--><g transform="translate(1261.0 1918.0) rotate(0.0 665.0 268.5)  scale(1.1580322159338268 1.1560818083961248)"><svg width="1148.5" height="464.5" viewBox="0.0 0.0 1148.5 464.5"><rect height="42" rx="18.561" transform="matrix(-1 -0 0 -1 414.5 887)" width="414.5" y="422.5" fill="#000000"/><path d="m379.021 464.5h610.979l158.5-464.5-604.5.5z" fill="#d5d8d8"/></svg></g></svg>