<svg xmlns="http://www.w3.org/2000/svg"  viewBox="0 0 64 64" width="64px" height="64px"><path fill="#00A0C8" d="M32,23L32,23c-0.552,0-1-0.448-1-1v-5h2v5C33,22.552,32.552,23,32,23z"/><path fill="#F0C8A0" d="M38.472,41H25.528L9.106,32.79c-0.988-0.494-1.388-1.695-0.895-2.684c0.495-0.988,1.697-1.388,2.684-0.895 L26.472,37h11.056l15.578-7.789c0.987-0.495,2.188-0.093,2.684,0.895c0.494,0.988,0.093,2.189-0.895,2.684L38.472,41z"/><path fill="#F0C8A0" d="M32,37L32,37c-2.209,0-4-1.791-4-4v-3c0-2.209,1.791-4,4-4h0c2.209,0,4,1.791,4,4v3 C36,35.209,34.209,37,32,37z"/><path fill="#00A0C8" d="M44.895,37.789l-1.789-3.578l-4.733,2.367C37.817,36.855,37.205,37,36.583,37h-9.167 c-0.621,0-1.234-0.145-1.789-0.422l-4.733-2.367l-1.789,3.578l5.342,2.671C24.786,40.629,25,40.975,25,41.354V58h14V41.354 c0-0.379,0.214-0.725,0.553-0.894L44.895,37.789z"/><path fill="#F0F0F0" d="M35.707,42.293c-0.391-0.391-1.023-0.391-1.414,0L31,45.586l-1.293-1.293 c-0.391-0.391-1.023-0.391-1.414,0s-0.391,1.023,0,1.414l2,2c0.391,0.391,1.023,0.391,1.414,0l4-4 C36.098,43.316,36.098,42.684,35.707,42.293z"/><path fill="#00A0C8" d="M47,14h-2c-0.553,0-1-0.448-1-1s0.447-1,1-1h2c0.553,0,1,0.448,1,1S47.553,14,47,14z"/><path fill="#FAB400" d="M43.707,19.707l-1.414-1.415c-0.391-0.391-0.391-1.024,0-1.414c0.391-0.391,1.023-0.391,1.414,0 l1.414,1.415c0.391,0.391,0.391,1.024,0,1.414C44.73,20.098,44.098,20.098,43.707,19.707z"/><path fill="#C80A50" d="M42.293,9.121c-0.391-0.391-0.391-1.023,0-1.414l1.414-1.414c0.391-0.391,1.023-0.391,1.414,0 s0.391,1.023,0,1.414l-1.414,1.414C43.316,9.512,42.684,9.512,42.293,9.121z"/><path fill="#00A0C8" d="M17,12h2c0.553,0,1,0.448,1,1s-0.447,1-1,1h-2c-0.553,0-1-0.448-1-1S16.447,12,17,12z"/><path fill="#FAB400" d="M20.293,6.293l1.414,1.415c0.391,0.391,0.391,1.024,0,1.414c-0.391,0.391-1.023,0.391-1.414,0 l-1.414-1.415c-0.391-0.391-0.391-1.024,0-1.414C19.27,5.902,19.902,5.902,20.293,6.293z"/><path fill="#C80A50" d="M21.707,16.879c0.391,0.391,0.391,1.023,0,1.414l-1.414,1.414c-0.391,0.391-1.023,0.391-1.414,0 s-0.391-1.023,0-1.414l1.414-1.414C20.684,16.488,21.316,16.488,21.707,16.879z"/><rect width="14" height="6" x="25" y="54" fill="#0A5078"/><path fill="#0A5078" d="M32,35c-1.378,0-2.5-1.122-2.5-2.5c0-0.276,0.224-0.5,0.5-0.5s0.5,0.224,0.5,0.5 c0,0.827,0.673,1.5,1.5,1.5s1.5-0.673,1.5-1.5c0-0.276,0.224-0.5,0.5-0.5s0.5,0.224,0.5,0.5C34.5,33.878,33.379,35,32,35z"/><circle cx="32" cy="12.5" r="8.5" fill="#00A0C8"/><g><circle cx="32" cy="13.5" r="6.5" fill="#0082AA"/></g><g><circle cx="32" cy="12.5" r="6.5" fill="#FAB400"/></g><g><path fill="#C80A50" d="M34.443,13c0.896,0,1.344,1.092,0.704,1.719C34.336,15.512,33.225,16,32,16s-2.336-0.488-3.147-1.281 C28.213,14.092,28.661,13,29.557,13H34.443z"/></g><g><circle cx="29" cy="11.5" r="1" fill="#0A5078"/></g><g><circle cx="35" cy="11.5" r="1" fill="#0A5078"/></g></svg>