<svg xmlns="http://www.w3.org/2000/svg"  viewBox="0 0 512 512" width="64px" height="64px"><path fill="#ffda44" d="M378.22,467.14A239.061,239.061,0,0,1,264,496C131.45,496,24,388.55,24,256S131.45,16,264,16A239.061,239.061,0,0,1,378.22,44.86C280.92,65.86,208,152.42,208,256S280.92,446.14,378.22,467.14Z"/><path fill="#acabb1" d="M239.28,368H392a55.694,55.694,0,0,0,15.91-2.31l.09-.01v-.01A56.132,56.132,0,0,0,445.68,328H472a16,16,0,0,0,0-32H445.68a56.081,56.081,0,0,0-43.97-39.14,80,80,0,0,0-153.16,21.89,48.128,48.128,0,0,0-39.77-4.29"/><path fill="#acabb1" d="M85.11,96H48a24,24,0,0,1,0-48h96.17"/><path d="M472,288H451.34a64.567,64.567,0,0,0-44.01-38.12A88.016,88.016,0,0,0,242.5,267.14a56.01,56.01,0,0,0-26.32-2.59Q216,260.29,216,256A208.087,208.087,0,0,1,379.91,52.68a8,8,0,0,0,2.12-14.85A248.649,248.649,0,0,0,141.92,40H48a32,32,0,0,0,0,64H68A248.064,248.064,0,0,0,382.03,474.17a8,8,0,0,0-2.12-14.85,208.692,208.692,0,0,1-117.09-71.84q-4.575-5.6-8.71-11.48H392a63.871,63.871,0,0,0,17.78-2.52,7.3,7.3,0,0,0,.91-.27A63.736,63.736,0,0,0,451.35,336H472a24,24,0,0,0,0-48ZM48,88a16,16,0,1,1,0-32h69.28A251.212,251.212,0,0,0,88.64,80.64c-2.41,2.41-4.75,4.87-7.05,7.36ZM355.41,469.29A233.037,233.037,0,0,1,264,488,232,232,0,0,1,99.95,91.95,230.48,230.48,0,0,1,264,24a233.037,233.037,0,0,1,91.41,18.71,224.077,224.077,0,0,0,0,426.58ZM477.67,317.65A7.957,7.957,0,0,1,472,320H445.68a8,8,0,0,0-7.67,5.72,47.813,47.813,0,0,1-32.1,32.22c-.09.03-.19.06-.28.08A47.863,47.863,0,0,1,392,360H243.88a208.784,208.784,0,0,1-26.41-79.47A40.515,40.515,0,0,1,224,280a40.013,40.013,0,0,1,20.46,5.62,8,8,0,0,0,12.04-5.95,72,72,0,0,1,137.84-19.69,8.017,8.017,0,0,0,5.99,4.76,48.3,48.3,0,0,1,37.68,33.55,8,8,0,0,0,7.67,5.71H472a8,8,0,0,1,5.67,13.65Z"/></svg>